<svg xmlns="http://www.w3.org/2000/svg" width="1280" height="640" viewBox="0 0 1280 640" role="img" aria-labelledby="t d">
<title id="t">Now We Know That Always Was Too Optimistic</title><desc id="d">Horizontal preview for an independent Jacobian-conjecture preprint.</desc>
<rect width="1280" height="640" fill="#08111f"/><rect x="52" y="48" width="1176" height="544" rx="22" fill="none" stroke="#26364b"/>
<text x="82" y="98" fill="#c9912b" font-family="Arial,Helvetica,sans-serif" font-size="18" font-weight="700" letter-spacing="1.5">INDEPENDENT PREPRINT · 20 JULY 2026</text>
<text x="82" y="188" fill="#f5f0e6" font-family="Georgia,'Times New Roman',serif" font-size="57" font-weight="700">“Always” Was Too Optimistic</text>
<text x="82" y="236" fill="#d6dbe2" font-family="Arial,Helvetica,sans-serif" font-size="24">An explicit polynomial map with constant non-zero Jacobian</text>
<g stroke-linecap="round" stroke-width="4" fill="none"><path d="M170 350C310 375 420 440 580 500" stroke="#2f69a2"/><path d="M580 330V500" stroke="#f5f0e6"/><path d="M990 350C850 375 740 440 580 500" stroke="#c9912b"/></g>
<g font-family="Georgia,serif" font-size="22" text-anchor="middle"><circle cx="170" cy="350" r="22" fill="#08111f" stroke="#2f69a2" stroke-width="3"/><text x="170" y="358" fill="#f5f0e6">p₁</text><circle cx="580" cy="330" r="22" fill="#08111f" stroke="#f5f0e6" stroke-width="3"/><text x="580" y="338" fill="#f5f0e6">p₂</text><circle cx="990" cy="350" r="22" fill="#08111f" stroke="#c9912b" stroke-width="3"/><text x="990" y="358" fill="#f5f0e6">p₃</text><circle cx="580" cy="500" r="32" fill="#c9912b"/><text x="580" y="508" fill="#08111f" font-family="Arial" font-size="20" font-weight="700">F(p)</text></g>
<text x="770" y="424" fill="#f5f0e6" font-family="Georgia,serif" font-size="36" font-weight="700">det JF = −2</text><text x="770" y="466" fill="#d6dbe2" font-family="Arial" font-size="22">3 distinct rational points · 1 common image</text><text x="770" y="507" fill="#c9912b" font-family="Arial" font-size="18" font-weight="700">EXACT CERTIFICATE · OPEN VERIFICATION</text>
<text x="82" y="562" fill="#aab2bd" font-family="Arial" font-size="16">Javier Aragón · v1.0 · github.com/javieraragonmartinez/forever-was-too-optimistic</text><text x="1198" y="562" text-anchor="end" fill="#c9912b" font-family="Arial" font-size="16" font-weight="700">NOT PEER REVIEWED</text>
</svg>