<svg xmlns="http://www.w3.org/2000/svg" width="1080" height="1350" viewBox="0 0 1080 1350" role="img" aria-labelledby="t d"><title id="t">Preprint announcement</title><desc id="d">Editorial announcement of an independent, unreviewed Jacobian-conjecture preprint.</desc><rect width="1080" height="1350" fill="#08111f"/><text x="72" y="86" fill="#c9912b" font-family="Arial" font-size="20" font-weight="700" letter-spacing="1.4">PREPRINT INDEPENDIENTE · 20 JUL 2026</text><text x="72" y="210" fill="#f5f0e6" font-family="Georgia,serif" font-size="66" font-weight="700">“Siempre” era</text><text x="72" y="286" fill="#f5f0e6" font-family="Georgia,serif" font-size="66" font-weight="700">demasiado optimista</text><text x="72" y="350" fill="#d6dbe2" font-family="Arial" font-size="28">Un mapa polinómico explícito en dimensión tres</text><g stroke-linecap="round" stroke-width="5" fill="none"><path d="M170 530C310 570 420 680 540 780" stroke="#2f69a2"/><path d="M540 490V780" stroke="#f5f0e6"/><path d="M910 530C770 570 660 680 540 780" stroke="#c9912b"/></g><g font-family="Georgia,serif" font-size="28" text-anchor="middle"><circle cx="170" cy="530" r="28" fill="#08111f" stroke="#2f69a2" stroke-width="4"/><text x="170" y="540" fill="#f5f0e6">p₁</text><circle cx="540" cy="490" r="28" fill="#08111f" stroke="#f5f0e6" stroke-width="4"/><text x="540" y="500" fill="#f5f0e6">p₂</text><circle cx="910" cy="530" r="28" fill="#08111f" stroke="#c9912b" stroke-width="4"/><text x="910" y="540" fill="#f5f0e6">p₃</text><circle cx="540" cy="780" r="42" fill="#c9912b"/><text x="540" y="790" fill="#08111f" font-family="Arial" font-size="26" font-weight="700">F(p)</text></g><text x="72" y="900" fill="#f5f0e6" font-family="Georgia,serif" font-size="48" font-weight="700">det JF = −2</text><text x="72" y="956" fill="#d6dbe2" font-family="Arial" font-size="27">Tres puntos racionales distintos.</text><text x="72" y="996" fill="#d6dbe2" font-family="Arial" font-size="27">Una imagen común.</text><rect x="72" y="1060" width="515" height="52" rx="26" fill="none" stroke="#c9912b" stroke-width="2"/><text x="329" y="1094" text-anchor="middle" fill="#f5f0e6" font-family="Arial" font-size="21" font-weight="700">CERTIFICADO EXACTO · VERIFICACIÓN ABIERTA</text><line x1="72" y1="1215" x2="1008" y2="1215" stroke="#5b6470"/><text x="72" y="1260" fill="#aab2bd" font-family="Arial" font-size="18">Javier Aragón · v1.0</text><text x="1008" y="1260" text-anchor="end" fill="#c9912b" font-family="Arial" font-size="18" font-weight="700">NO REVISADO POR PARES</text></svg>